<svg width="29" height="29" viewBox="0 0 29 29" fill="none" xmlns="http://www.w3.org/2000/svg">
<path d="M26.1997 21.6932C25.2072 20.6933 22.8034 19.2339 21.6371 18.6458C20.1183 17.8809 19.9933 17.8184 18.7995 18.7052C18.0033 19.2971 17.4739 19.8258 16.542 19.6271C15.6101 19.4283 13.585 18.3077 11.8119 16.5403C10.0387 14.7729 8.85303 12.6892 8.65365 11.7605C8.45427 10.8318 8.99178 10.3087 9.57805 9.51062C10.4043 8.38566 10.3418 8.19817 9.63555 6.67949C9.08491 5.49829 7.583 3.11714 6.57922 2.12968C5.50545 1.0691 5.50545 1.2566 4.81356 1.54408C4.25027 1.78107 3.70988 2.06913 3.19914 2.40467C2.19912 3.06902 1.6441 3.62087 1.25597 4.45021C0.867835 5.27955 0.693456 7.22384 2.69788 10.8649C4.7023 14.506 6.10859 16.3678 9.01928 19.2702C11.93 22.1726 14.1682 23.7331 17.4401 25.5681C21.4877 27.8348 23.0403 27.393 23.8721 27.0055C24.704 26.618 25.2584 26.068 25.9241 25.0681C26.2605 24.5582 26.5492 24.0185 26.7866 23.4556C27.0747 22.7663 27.2622 22.7663 26.1997 21.6932Z" stroke="#40DDB6" stroke-width="2" stroke-miterlimit="10"/>
</svg>
